<svg width="24" height="24" viewBox="0 0 24 24" fill="none" xmlns="http://www.w3.org/2000/svg">
<path d="M0 12C0 18.6276 5.3724 24 12 24C18.6276 24 24 18.6276 24 12C24 5.3724 18.6276 0 12 0C5.3724 0 0 5.3724 0 12Z" fill="#FD7A59"/>
<path fill-rule="evenodd" clip-rule="evenodd" d="M15.141 6.00371C15.3224 6.00371 15.821 5.95827 15.821 6.18546C15.821 6.50351 14.733 7.09419 14.733 7.73031C14.733 8.00293 14.733 8.18468 14.9144 8.41186C15.0504 8.59361 15.3677 8.91166 15.5944 9.04797C15.821 9.27516 16.0024 9.27516 16.2744 9.27516C16.8637 9.27516 17.5437 8.13924 17.725 8.13924C18.405 8.13924 17.8157 10.7291 16.0477 11.2289C15.0957 11.5016 14.6424 11.0018 13.9624 11.6833C11.9224 13.6825 9.92771 15.7272 7.93304 17.7718C7.02638 18.4988 4.89572 17.4083 6.70905 15.6363L11.9677 10.3202C12.2397 10.0476 12.6477 9.72953 12.6477 9.22972C12.6477 7.63943 13.237 6.00371 15.141 6.00371Z" fill="white"/>
<path fill-rule="evenodd" clip-rule="evenodd" d="M13.509 14.5458C13.3276 14.5458 12.7836 14.1369 12.6476 14.0915L10.7437 15.9998C11.469 16.9086 15.0956 18.4988 16.3196 17.681C16.5463 17.5447 17.2263 16.8177 17.453 16.5905C17.8156 16.227 17.861 16.0453 17.861 15.6363C17.861 15.182 16.501 14.0006 16.1383 13.6371C15.9116 13.4099 15.685 13.1827 15.3223 13.1827C14.5516 13.1827 13.781 14.5458 13.509 14.5458Z" fill="white"/>
<path fill-rule="evenodd" clip-rule="evenodd" d="M8.02389 13.1827L9.92788 11.3198C9.11189 9.9113 9.79188 10.4111 10.6985 9.22974C11.3332 8.36644 9.11189 6.23092 8.43189 6.14004C7.93322 6.04917 7.66122 6.36723 7.34389 6.63985C5.48523 8.54819 6.30123 12.0468 8.02389 13.1827Z" fill="white"/>
</svg>
